# xmcd CD database file
#
# Track frame offsets:
#	150
#	23677
#	55125
#	77987
#	96697
#	115282
#	139130
#	160590
#	183492
#	206230
#	220159
#	236452
#	254702
#
# Disc length: 3597 seconds
#
# Revision: 7
# Processed by: cddbd v1.5.2PL0 Copyright (c) Steve Scherf et al.
# Submitted via: CDex 1.70beta2
#
DISCID=bf0e0b0d
DTITLE=John Mayall And The Bluesbreakers - Padlock On The Blues
DYEAR=1999
DGENRE=Blues
TTITLE0=Don't Turn Your Back
TTITLE1=Padlock On The Blues
TTITLE2=A Hard Road
TTITLE3=Somebody's Watching
TTITLE4=Always A Brand New Road
TTITLE5=My Country Girl
TTITLE6=The Strip
TTITLE7=I've Got To Talk To You
TTITLE8=Dancing Shoes
TTITLE9=Bad Dream Catcher
TTITLE10=When The Blues Are Bad
TTITLE11=Ain't No Surrender
TTITLE12=White Line Fever
EXTD=Special Guests - John Lee Hooker, Coco Montoya and Ernie Watts YEAR: 1999
EXTT0=
EXTT1=
EXTT2=
EXTT3=
EXTT4=
EXTT5=
EXTT6=
EXTT7=
EXTT8=
EXTT9=
EXTT10=
EXTT11=
EXTT12=
PLAYORDER=
